<?xml version="1.0" encoding="utf-8"?>
<!-- Generator: Adobe Illustrator 27.0.0, SVG Export Plug-In . SVG Version: 6.00 Build 0)  -->
<svg version="1.1" id="圖層_1" xmlns="http://www.w3.org/2000/svg" xmlns:xlink="http://www.w3.org/1999/xlink" x="0px" y="0px"
	 viewBox="0 0 250 250" style="enable-background:new 0 0 250 250;" xml:space="preserve">
<style type="text/css">
	.st0{opacity:0.2;}
	.st1{fill:#D06745;}
	.st2{opacity:0.2;fill:#CB8780;}
	.st3{opacity:0.2;fill:#EACF8A;}
</style>
<g class="st0">
	<path class="st1" d="M23,109.76l46.95,8.28c1.25,0.22,2.44-0.61,2.66-1.86l0.83-4.68c0.5-2.85-1.4-5.57-4.25-6.07l-14.59-2.57
		c-0.24-2.77-2.3-5.14-5.17-5.65c-2.86-0.51-5.62,1.02-6.79,3.54l-14.59-2.57c-2.85-0.5-5.57,1.4-6.07,4.25l-0.83,4.68
		C20.92,108.35,21.75,109.54,23,109.76z"/>
	<path class="st1" d="M82.46,130.26c-0.24-4.33-3.77-7.78-8.12-7.92c-0.14-0.53-0.3-1.06-0.47-1.58c-0.23-0.7-0.88-1.18-1.62-1.18
		H23.39c-0.74,0-1.39,0.48-1.62,1.18c-0.17,0.52-0.33,1.05-0.48,1.59c-4.41,0.26-7.91,3.91-7.91,8.39c0,4.65,3.77,8.42,8.42,8.42
		c0.11,0,0.22-0.01,0.33-0.02c3.92,10.38,13.94,17.76,25.69,17.76c11.76,0,21.78-7.39,25.69-17.78c0.12,0.01,0.23,0.02,0.35,0.02
		c0.07,0,0.13,0,0.2,0C78.84,139.16,82.73,135.06,82.46,130.26z M14.78,130.74c0-3.5,2.58-6.42,5.94-6.93
		c-0.37,1.85-0.55,3.74-0.55,5.64c0,2.83,0.41,5.61,1.21,8.29C17.7,137.53,14.78,134.47,14.78,130.74z M62.86,150.73
		c-4.41,3.13-9.62,4.78-15.04,4.78c-5.42,0-10.62-1.65-15.03-4.77c-4.31-3.05-7.56-7.27-9.4-12.2c-1.08-2.9-1.63-5.96-1.63-9.08
		c0-2.28,0.3-4.55,0.88-6.74c0.14-0.51,0.29-1.02,0.46-1.51c0.04-0.13,0.16-0.22,0.29-0.22h48.86c0.13,0,0.25,0.09,0.29,0.22
		c0.17,0.5,0.32,1.02,0.46,1.53c0.58,2.18,0.88,4.44,0.88,6.72c0,3.11-0.54,6.15-1.61,9.05C70.43,143.44,67.18,147.67,62.86,150.73z
		 M79.14,135.54c-1.29,1.36-3.06,2.16-4.89,2.21c0.81-2.68,1.21-5.47,1.21-8.3c0-1.91-0.19-3.81-0.56-5.68
		c3.33,0.4,5.97,3.14,6.16,6.56C81.17,132.26,80.49,134.11,79.14,135.54z"/>
</g>
<path class="st2" d="M36.88,139.03v2.87c0,0.91,0.74,1.66,1.65,1.66c0.91,0,1.66-0.74,1.66-1.66v-2.87c0-0.91-0.74-1.65-1.66-1.65
	C37.62,137.37,36.88,138.11,36.88,139.03"/>
<path class="st2" d="M55.67,139.03v2.87c0,0.91,0.74,1.66,1.65,1.66c0.91,0,1.66-0.74,1.66-1.66v-2.87c0-0.91-0.74-1.65-1.66-1.65
	C56.41,137.37,55.67,138.11,55.67,139.03"/>
<path class="st3" d="M47.93,143.23c-2.71,0-4.9,2.19-4.9,4.9c0,2.7,2.19,4.9,4.9,4.9c2.7,0,4.9-2.19,4.9-4.9
	C52.83,145.42,50.63,143.23,47.93,143.23 M47.93,151.6c-1.91,0-3.47-1.55-3.47-3.47c0-1.91,1.56-3.47,3.47-3.47
	c1.91,0,3.47,1.55,3.47,3.47C51.39,150.04,49.84,151.6,47.93,151.6"/>
<path class="st3" d="M47.93,145.86c-1.25,0-2.27,1.02-2.27,2.27c0,1.25,1.02,2.26,2.27,2.26c1.25,0,2.26-1.02,2.26-2.26
	C50.19,146.88,49.18,145.86,47.93,145.86"/>
<g class="st0">
	<path class="st1" d="M102.29,118.07h47.68c1.27,0,2.29-1.03,2.29-2.29v-4.76c0-2.9-2.35-5.24-5.24-5.24H132.2
		c-0.71-2.68-3.16-4.66-6.07-4.66c-2.91,0-5.35,1.98-6.07,4.66h-14.82c-2.9,0-5.24,2.35-5.24,5.24v4.76
		C99.99,117.04,101.02,118.07,102.29,118.07z"/>
	<path class="st1" d="M160.64,130.26c-0.24-4.33-3.77-7.78-8.12-7.92c-0.14-0.53-0.3-1.06-0.47-1.58c-0.23-0.7-0.88-1.18-1.62-1.18
		h-48.86c-0.74,0-1.39,0.48-1.62,1.18c-0.17,0.52-0.33,1.05-0.48,1.59c-4.41,0.26-7.91,3.91-7.91,8.39c0,4.65,3.77,8.42,8.42,8.42
		c0.11,0,0.22-0.01,0.33-0.02c3.92,10.38,13.94,17.76,25.69,17.76c11.76,0,21.78-7.39,25.69-17.78c0.12,0.01,0.23,0.02,0.35,0.02
		c0.07,0,0.13,0,0.2,0C157.01,139.16,160.91,135.06,160.64,130.26z M92.96,130.74c0-3.5,2.58-6.42,5.95-6.93
		c-0.37,1.85-0.55,3.74-0.55,5.64c0,2.83,0.41,5.61,1.21,8.29C95.88,137.53,92.96,134.47,92.96,130.74z M141.04,150.73
		c-4.41,3.13-9.61,4.78-15.04,4.78c-5.42,0-10.62-1.65-15.03-4.77c-4.31-3.05-7.56-7.27-9.4-12.2c-1.08-2.9-1.63-5.96-1.63-9.08
		c0-2.28,0.3-4.55,0.88-6.74c0.14-0.51,0.29-1.02,0.46-1.51c0.04-0.13,0.16-0.22,0.29-0.22h48.86c0.13,0,0.25,0.09,0.29,0.22
		c0.17,0.5,0.32,1.02,0.46,1.53c0.58,2.18,0.88,4.44,0.88,6.72c0,3.11-0.54,6.15-1.61,9.05
		C148.6,143.44,145.36,147.67,141.04,150.73z M157.32,135.54c-1.29,1.36-3.06,2.16-4.89,2.21c0.81-2.68,1.21-5.47,1.21-8.3
		c0-1.91-0.19-3.81-0.56-5.68c3.33,0.4,5.97,3.14,6.16,6.56C159.35,132.26,158.67,134.11,157.32,135.54z"/>
</g>
<path class="st2" d="M115.06,139.03v2.87c0,0.91,0.74,1.66,1.65,1.66c0.92,0,1.66-0.74,1.66-1.66v-2.87c0-0.91-0.74-1.65-1.66-1.65
	C115.8,137.37,115.06,138.11,115.06,139.03"/>
<path class="st2" d="M133.85,139.03v2.87c0,0.91,0.74,1.66,1.65,1.66c0.91,0,1.66-0.74,1.66-1.66v-2.87c0-0.91-0.74-1.65-1.66-1.65
	C134.59,137.37,133.85,138.11,133.85,139.03"/>
<path class="st3" d="M126.11,143.23c-2.71,0-4.9,2.19-4.9,4.9c0,2.7,2.19,4.9,4.9,4.9s4.9-2.19,4.9-4.9
	C131,145.42,128.81,143.23,126.11,143.23 M126.11,151.6c-1.91,0-3.47-1.55-3.47-3.47c0-1.91,1.56-3.47,3.47-3.47
	s3.47,1.55,3.47,3.47C129.57,150.04,128.02,151.6,126.11,151.6"/>
<path class="st3" d="M126.11,145.86c-1.25,0-2.27,1.02-2.27,2.27c0,1.25,1.02,2.26,2.27,2.26c1.25,0,2.27-1.02,2.27-2.26
	C128.37,146.88,127.35,145.86,126.11,145.86"/>
<g class="st0">
	<path class="st1" d="M176.72,116.17c0.22,1.25,1.41,2.08,2.66,1.86l46.95-8.28c1.25-0.22,2.08-1.41,1.86-2.66l-0.82-4.68
		c-0.5-2.85-3.22-4.76-6.07-4.25l-14.59,2.57c-1.17-2.52-3.92-4.04-6.79-3.54c-2.86,0.51-4.93,2.88-5.17,5.65l-14.59,2.57
		c-2.85,0.5-4.76,3.22-4.25,6.07L176.72,116.17z"/>
	<path class="st1" d="M238.82,130.26c-0.24-4.33-3.77-7.78-8.12-7.92c-0.14-0.53-0.3-1.06-0.47-1.58c-0.23-0.7-0.88-1.18-1.62-1.18
		h-48.86c-0.74,0-1.39,0.48-1.62,1.18c-0.17,0.52-0.33,1.05-0.48,1.59c-4.41,0.26-7.91,3.91-7.91,8.39c0,4.65,3.77,8.42,8.42,8.42
		c0.11,0,0.22-0.01,0.33-0.02c3.92,10.38,13.94,17.76,25.69,17.76c11.76,0,21.78-7.39,25.69-17.78c0.12,0.01,0.23,0.02,0.35,0.02
		c0.07,0,0.13,0,0.2,0C235.19,139.16,239.09,135.06,238.82,130.26z M171.13,130.74c0-3.5,2.58-6.42,5.95-6.93
		c-0.37,1.85-0.55,3.74-0.55,5.64c0,2.83,0.41,5.61,1.21,8.29C174.06,137.53,171.13,134.47,171.13,130.74z M228.61,138.5
		c-1.83,4.94-5.08,9.17-9.4,12.23c-4.41,3.13-9.61,4.78-15.04,4.78c-5.42,0-10.62-1.65-15.03-4.77c-4.31-3.05-7.56-7.27-9.4-12.2
		c-1.08-2.9-1.63-5.96-1.63-9.08c0-2.28,0.3-4.55,0.88-6.74c0.14-0.51,0.29-1.02,0.45-1.51c0.04-0.13,0.16-0.22,0.29-0.22h48.86
		c0.13,0,0.25,0.09,0.29,0.22c0.17,0.5,0.32,1.02,0.46,1.53c0.58,2.18,0.88,4.44,0.88,6.72
		C230.23,132.56,229.68,135.61,228.61,138.5z M235.5,135.54c-1.29,1.36-3.06,2.16-4.89,2.21c0.81-2.68,1.21-5.47,1.21-8.3
		c0-1.91-0.19-3.81-0.56-5.68c3.33,0.4,5.97,3.14,6.16,6.56C237.53,132.26,236.85,134.11,235.5,135.54z"/>
</g>
<path class="st2" d="M193.24,139.03v2.87c0,0.91,0.74,1.66,1.66,1.66c0.91,0,1.66-0.74,1.66-1.66v-2.87c0-0.91-0.74-1.65-1.66-1.65
	C193.98,137.37,193.24,138.11,193.24,139.03"/>
<path class="st2" d="M212.03,139.03v2.87c0,0.91,0.74,1.66,1.65,1.66c0.91,0,1.66-0.74,1.66-1.66v-2.87c0-0.91-0.74-1.65-1.66-1.65
	C212.77,137.37,212.03,138.11,212.03,139.03"/>
<path class="st3" d="M204.28,143.23c-2.71,0-4.9,2.19-4.9,4.9c0,2.7,2.19,4.9,4.9,4.9c2.71,0,4.9-2.19,4.9-4.9
	C209.18,145.42,206.99,143.23,204.28,143.23 M204.28,151.6c-1.91,0-3.47-1.55-3.47-3.47c0-1.91,1.55-3.47,3.47-3.47
	c1.91,0,3.47,1.55,3.47,3.47C207.75,150.04,206.2,151.6,204.28,151.6"/>
<path class="st3" d="M204.28,145.86c-1.25,0-2.27,1.02-2.27,2.27c0,1.25,1.02,2.26,2.27,2.26c1.25,0,2.26-1.02,2.26-2.26
	C206.55,146.88,205.53,145.86,204.28,145.86"/>
<g class="st0">
	<path class="st1" d="M102.29,191.62h47.68c1.27,0,2.29-1.03,2.29-2.29v-4.76c0-2.9-2.35-5.24-5.24-5.24H132.2
		c-0.71-2.68-3.16-4.66-6.07-4.66c-2.91,0-5.35,1.98-6.07,4.66h-14.82c-2.9,0-5.24,2.35-5.24,5.24v4.76
		C99.99,190.59,101.02,191.62,102.29,191.62z"/>
	<path class="st1" d="M160.64,203.81c-0.24-4.33-3.77-7.78-8.12-7.92c-0.14-0.53-0.3-1.06-0.47-1.58c-0.23-0.7-0.88-1.18-1.62-1.18
		h-48.86c-0.74,0-1.39,0.48-1.62,1.18c-0.17,0.52-0.33,1.05-0.48,1.59c-4.41,0.26-7.91,3.91-7.91,8.39c0,4.65,3.77,8.42,8.42,8.42
		c0.11,0,0.22-0.01,0.33-0.01c3.92,10.38,13.94,17.76,25.69,17.76c11.76,0,21.78-7.39,25.69-17.78c0.12,0.01,0.23,0.02,0.35,0.02
		c0.07,0,0.13,0,0.2,0C157.01,212.71,160.91,208.61,160.64,203.81z M92.96,204.29c0-3.5,2.58-6.42,5.95-6.93
		c-0.37,1.85-0.55,3.75-0.55,5.65c0,2.83,0.41,5.61,1.21,8.29C95.88,211.08,92.96,208.02,92.96,204.29z M141.04,224.28
		c-4.41,3.13-9.61,4.78-15.04,4.78c-5.42,0-10.62-1.65-15.03-4.77c-4.31-3.05-7.56-7.27-9.4-12.2c-1.08-2.91-1.63-5.96-1.63-9.08
		c0-2.28,0.3-4.55,0.88-6.74c0.14-0.51,0.29-1.02,0.46-1.51c0.04-0.13,0.16-0.22,0.29-0.22h48.86c0.13,0,0.25,0.09,0.29,0.22
		c0.17,0.5,0.32,1.02,0.46,1.53c0.58,2.18,0.88,4.44,0.88,6.72c0,3.11-0.54,6.15-1.61,9.05
		C148.6,216.99,145.36,221.22,141.04,224.28z M157.32,209.09c-1.29,1.36-3.06,2.16-4.89,2.21c0.81-2.68,1.21-5.47,1.21-8.3
		c0-1.91-0.19-3.81-0.56-5.68c3.33,0.4,5.97,3.14,6.16,6.56C159.35,205.81,158.67,207.66,157.32,209.09z"/>
</g>
<path class="st2" d="M115.06,212.57v2.87c0,0.91,0.74,1.66,1.65,1.66c0.92,0,1.66-0.74,1.66-1.66v-2.87c0-0.91-0.74-1.65-1.66-1.65
	C115.8,210.92,115.06,211.66,115.06,212.57"/>
<path class="st2" d="M133.85,212.57v2.87c0,0.91,0.74,1.66,1.65,1.66c0.91,0,1.66-0.74,1.66-1.66v-2.87c0-0.91-0.74-1.65-1.66-1.65
	C134.59,210.92,133.85,211.66,133.85,212.57"/>
<path class="st3" d="M126.11,216.78c-2.71,0-4.9,2.19-4.9,4.9c0,2.71,2.19,4.9,4.9,4.9s4.9-2.19,4.9-4.9
	C131,218.97,128.81,216.78,126.11,216.78 M126.11,225.14c-1.91,0-3.47-1.55-3.47-3.47c0-1.91,1.56-3.47,3.47-3.47
	s3.47,1.56,3.47,3.47C129.57,223.59,128.02,225.14,126.11,225.14"/>
<path class="st3" d="M126.11,219.41c-1.25,0-2.27,1.02-2.27,2.27c0,1.25,1.02,2.26,2.27,2.26c1.25,0,2.27-1.02,2.27-2.26
	C128.37,220.43,127.35,219.41,126.11,219.41"/>
<g class="st0">
	<path class="st1" d="M20.36,189.72c0.22,1.25,1.41,2.08,2.66,1.86l46.95-8.28c1.25-0.22,2.08-1.41,1.86-2.66l-0.83-4.68
		c-0.5-2.85-3.22-4.76-6.07-4.25l-14.59,2.57c-1.17-2.52-3.92-4.04-6.79-3.54s-4.93,2.88-5.17,5.65l-14.59,2.57
		c-2.85,0.5-4.76,3.22-4.25,6.07L20.36,189.72z"/>
	<path class="st1" d="M82.46,203.81c-0.24-4.33-3.77-7.78-8.12-7.92c-0.14-0.53-0.3-1.06-0.47-1.58c-0.23-0.7-0.88-1.18-1.62-1.18
		H23.39c-0.74,0-1.39,0.48-1.62,1.18c-0.17,0.52-0.33,1.05-0.48,1.59c-4.41,0.26-7.91,3.91-7.91,8.39c0,4.65,3.77,8.42,8.42,8.42
		c0.11,0,0.22-0.01,0.33-0.01c3.92,10.38,13.94,17.76,25.69,17.76c11.76,0,21.78-7.39,25.69-17.78c0.12,0.01,0.23,0.02,0.35,0.02
		c0.07,0,0.13,0,0.2,0C78.84,212.71,82.73,208.61,82.46,203.81z M14.78,204.29c0-3.5,2.58-6.42,5.94-6.93
		c-0.37,1.85-0.55,3.75-0.55,5.65c0,2.83,0.41,5.61,1.21,8.29C17.7,211.08,14.78,208.02,14.78,204.29z M62.86,224.28
		c-4.41,3.13-9.62,4.78-15.04,4.78c-5.42,0-10.62-1.65-15.03-4.77c-4.31-3.05-7.56-7.27-9.4-12.2c-1.08-2.91-1.63-5.96-1.63-9.08
		c0-2.28,0.3-4.55,0.88-6.74c0.14-0.51,0.29-1.02,0.46-1.51c0.04-0.13,0.16-0.22,0.29-0.22h48.86c0.13,0,0.25,0.09,0.29,0.22
		c0.17,0.5,0.32,1.02,0.46,1.53c0.58,2.18,0.88,4.44,0.88,6.72c0,3.11-0.54,6.15-1.61,9.05C70.43,216.99,67.18,221.22,62.86,224.28z
		 M79.14,209.09c-1.29,1.36-3.06,2.16-4.89,2.21c0.81-2.68,1.21-5.47,1.21-8.3c0-1.91-0.19-3.81-0.56-5.68
		c3.33,0.4,5.97,3.14,6.16,6.56C81.17,205.81,80.49,207.66,79.14,209.09z"/>
</g>
<path class="st2" d="M36.88,212.57v2.87c0,0.91,0.74,1.66,1.65,1.66c0.91,0,1.66-0.74,1.66-1.66v-2.87c0-0.91-0.74-1.65-1.66-1.65
	C37.62,210.92,36.88,211.66,36.88,212.57"/>
<path class="st2" d="M55.67,212.57v2.87c0,0.91,0.74,1.66,1.65,1.66c0.91,0,1.66-0.74,1.66-1.66v-2.87c0-0.91-0.74-1.65-1.66-1.65
	C56.41,210.92,55.67,211.66,55.67,212.57"/>
<path class="st3" d="M47.93,216.78c-2.71,0-4.9,2.19-4.9,4.9c0,2.71,2.19,4.9,4.9,4.9c2.7,0,4.9-2.19,4.9-4.9
	C52.83,218.97,50.63,216.78,47.93,216.78 M47.93,225.14c-1.91,0-3.47-1.55-3.47-3.47c0-1.91,1.56-3.47,3.47-3.47
	c1.91,0,3.47,1.56,3.47,3.47C51.39,223.59,49.84,225.14,47.93,225.14"/>
<path class="st3" d="M47.93,219.41c-1.25,0-2.27,1.02-2.27,2.27c0,1.25,1.02,2.26,2.27,2.26c1.25,0,2.26-1.02,2.26-2.26
	C50.19,220.43,49.18,219.41,47.93,219.41"/>
<g class="st0">
	<path class="st1" d="M179.36,183.3l46.95,8.28c1.25,0.22,2.44-0.61,2.66-1.86l0.83-4.68c0.5-2.85-1.4-5.57-4.25-6.07l-14.59-2.57
		c-0.24-2.77-2.3-5.14-5.17-5.65c-2.86-0.51-5.62,1.02-6.79,3.54l-14.59-2.57c-2.85-0.5-5.57,1.4-6.07,4.25l-0.83,4.68
		C177.28,181.89,178.11,183.08,179.36,183.3z"/>
	<path class="st1" d="M238.82,203.81c-0.24-4.33-3.77-7.78-8.12-7.92c-0.14-0.53-0.3-1.06-0.47-1.58c-0.23-0.7-0.88-1.18-1.62-1.18
		h-48.86c-0.74,0-1.39,0.48-1.62,1.18c-0.17,0.52-0.33,1.05-0.48,1.59c-4.41,0.26-7.91,3.91-7.91,8.39c0,4.65,3.77,8.42,8.42,8.42
		c0.11,0,0.22-0.01,0.33-0.01c3.92,10.38,13.94,17.76,25.69,17.76c11.76,0,21.78-7.39,25.69-17.78c0.12,0.01,0.23,0.02,0.35,0.02
		c0.07,0,0.13,0,0.2,0C235.19,212.71,239.09,208.61,238.82,203.81z M171.13,204.29c0-3.5,2.58-6.42,5.95-6.93
		c-0.37,1.85-0.55,3.75-0.55,5.65c0,2.83,0.41,5.61,1.21,8.29C174.06,211.08,171.13,208.02,171.13,204.29z M219.21,224.28
		c-4.41,3.13-9.61,4.78-15.04,4.78c-5.42,0-10.62-1.65-15.03-4.77c-4.31-3.05-7.56-7.27-9.4-12.2c-1.08-2.91-1.63-5.96-1.63-9.08
		c0-2.28,0.3-4.55,0.88-6.74c0.14-0.51,0.29-1.02,0.45-1.51c0.04-0.13,0.16-0.22,0.29-0.22h48.86c0.13,0,0.25,0.09,0.29,0.22
		c0.17,0.5,0.32,1.02,0.46,1.53c0.58,2.18,0.88,4.44,0.88,6.72c0,3.11-0.54,6.15-1.61,9.05
		C226.78,216.99,223.53,221.22,219.21,224.28z M235.5,209.09c-1.29,1.36-3.06,2.16-4.89,2.21c0.81-2.68,1.21-5.47,1.21-8.3
		c0-1.91-0.19-3.81-0.56-5.68c3.33,0.4,5.97,3.14,6.16,6.56C237.53,205.81,236.85,207.66,235.5,209.09z"/>
</g>
<path class="st2" d="M193.24,212.57v2.87c0,0.91,0.74,1.66,1.66,1.66c0.91,0,1.66-0.74,1.66-1.66v-2.87c0-0.91-0.74-1.65-1.66-1.65
	C193.98,210.92,193.24,211.66,193.24,212.57"/>
<path class="st2" d="M212.03,212.57v2.87c0,0.91,0.74,1.66,1.65,1.66c0.91,0,1.66-0.74,1.66-1.66v-2.87c0-0.91-0.74-1.65-1.66-1.65
	C212.77,210.92,212.03,211.66,212.03,212.57"/>
<path class="st3" d="M204.28,216.78c-2.71,0-4.9,2.19-4.9,4.9c0,2.71,2.19,4.9,4.9,4.9c2.71,0,4.9-2.19,4.9-4.9
	C209.18,218.97,206.99,216.78,204.28,216.78 M204.28,225.14c-1.91,0-3.47-1.55-3.47-3.47c0-1.91,1.55-3.47,3.47-3.47
	c1.91,0,3.47,1.56,3.47,3.47C207.75,223.59,206.2,225.14,204.28,225.14"/>
<path class="st3" d="M204.28,219.41c-1.25,0-2.27,1.02-2.27,2.27c0,1.25,1.02,2.26,2.27,2.26c1.25,0,2.26-1.02,2.26-2.26
	C206.55,220.43,205.53,219.41,204.28,219.41"/>
<g class="st0">
	<path class="st1" d="M102.29,44.52h47.68c1.27,0,2.29-1.03,2.29-2.29v-4.76c0-2.9-2.35-5.24-5.24-5.24H132.2
		c-0.71-2.68-3.16-4.66-6.07-4.66c-2.91,0-5.35,1.98-6.07,4.66h-14.82c-2.9,0-5.24,2.35-5.24,5.24v4.76
		C99.99,43.5,101.02,44.52,102.29,44.52z"/>
	<path class="st1" d="M160.64,56.71c-0.24-4.33-3.77-7.78-8.12-7.92c-0.14-0.53-0.3-1.06-0.47-1.58c-0.23-0.7-0.88-1.18-1.62-1.18
		h-48.86c-0.74,0-1.39,0.48-1.62,1.18c-0.17,0.52-0.33,1.05-0.48,1.59c-4.41,0.26-7.91,3.91-7.91,8.39c0,4.65,3.77,8.42,8.42,8.42
		c0.11,0,0.22-0.01,0.33-0.02c3.92,10.38,13.94,17.76,25.69,17.76c11.76,0,21.78-7.39,25.69-17.78c0.12,0.01,0.23,0.02,0.35,0.02
		c0.07,0,0.13,0,0.2,0C157.01,65.61,160.91,61.51,160.64,56.71z M92.96,57.19c0-3.5,2.58-6.42,5.95-6.93
		c-0.37,1.85-0.55,3.75-0.55,5.65c0,2.83,0.41,5.61,1.21,8.29C95.88,63.98,92.96,60.92,92.96,57.19z M141.04,77.18
		c-4.41,3.13-9.61,4.78-15.04,4.78c-5.42,0-10.62-1.65-15.03-4.77c-4.31-3.05-7.56-7.27-9.4-12.2c-1.08-2.91-1.63-5.96-1.63-9.08
		c0-2.28,0.3-4.55,0.88-6.74c0.14-0.51,0.29-1.02,0.46-1.51c0.04-0.13,0.16-0.22,0.29-0.22h48.86c0.13,0,0.25,0.09,0.29,0.22
		c0.17,0.5,0.32,1.02,0.46,1.53c0.58,2.18,0.88,4.44,0.88,6.72c0,3.11-0.54,6.15-1.61,9.05C148.6,69.89,145.36,74.12,141.04,77.18z
		 M157.32,61.99c-1.29,1.36-3.06,2.16-4.89,2.21c0.81-2.68,1.21-5.47,1.21-8.3c0-1.91-0.19-3.81-0.56-5.68
		c3.33,0.4,5.97,3.14,6.16,6.56C159.35,58.72,158.67,60.57,157.32,61.99z"/>
</g>
<path class="st2" d="M115.06,65.48v2.87c0,0.91,0.74,1.66,1.65,1.66c0.92,0,1.66-0.74,1.66-1.66v-2.87c0-0.91-0.74-1.65-1.66-1.65
	C115.8,63.82,115.06,64.56,115.06,65.48"/>
<path class="st2" d="M133.85,65.48v2.87c0,0.91,0.74,1.66,1.65,1.66c0.91,0,1.66-0.74,1.66-1.66v-2.87c0-0.91-0.74-1.65-1.66-1.65
	C134.59,63.82,133.85,64.56,133.85,65.48"/>
<path class="st3" d="M126.11,69.68c-2.71,0-4.9,2.19-4.9,4.9c0,2.71,2.19,4.9,4.9,4.9s4.9-2.19,4.9-4.9
	C131,71.88,128.81,69.68,126.11,69.68 M126.11,78.05c-1.91,0-3.47-1.55-3.47-3.47c0-1.91,1.56-3.47,3.47-3.47s3.47,1.56,3.47,3.47
	C129.57,76.49,128.02,78.05,126.11,78.05"/>
<path class="st3" d="M126.11,72.32c-1.25,0-2.27,1.02-2.27,2.27c0,1.25,1.02,2.26,2.27,2.26c1.25,0,2.27-1.02,2.27-2.26
	C128.37,73.33,127.35,72.32,126.11,72.32"/>
<g class="st0">
	<path class="st1" d="M20.36,42.63c0.22,1.25,1.41,2.08,2.66,1.86l46.95-8.28c1.25-0.22,2.08-1.41,1.86-2.66l-0.83-4.68
		c-0.5-2.85-3.22-4.76-6.07-4.25l-14.59,2.57c-1.17-2.52-3.92-4.04-6.79-3.54s-4.93,2.88-5.17,5.65l-14.59,2.57
		c-2.85,0.5-4.76,3.22-4.25,6.07L20.36,42.63z"/>
	<path class="st1" d="M82.46,56.71c-0.24-4.33-3.77-7.78-8.12-7.92c-0.14-0.53-0.3-1.06-0.47-1.58c-0.23-0.7-0.88-1.18-1.62-1.18
		H23.39c-0.74,0-1.39,0.48-1.62,1.18c-0.17,0.52-0.33,1.05-0.48,1.59c-4.41,0.26-7.91,3.91-7.91,8.39c0,4.65,3.77,8.42,8.42,8.42
		c0.11,0,0.22-0.01,0.33-0.02c3.92,10.38,13.94,17.76,25.69,17.76c11.76,0,21.78-7.39,25.69-17.78c0.12,0.01,0.23,0.02,0.35,0.02
		c0.07,0,0.13,0,0.2,0C78.84,65.61,82.73,61.51,82.46,56.71z M14.78,57.19c0-3.5,2.58-6.42,5.94-6.93
		c-0.37,1.85-0.55,3.75-0.55,5.65c0,2.83,0.41,5.61,1.21,8.29C17.7,63.98,14.78,60.92,14.78,57.19z M62.86,77.18
		c-4.41,3.13-9.62,4.78-15.04,4.78c-5.42,0-10.62-1.65-15.03-4.77c-4.31-3.05-7.56-7.27-9.4-12.2c-1.08-2.91-1.63-5.96-1.63-9.08
		c0-2.28,0.3-4.55,0.88-6.74c0.14-0.51,0.29-1.02,0.46-1.51c0.04-0.13,0.16-0.22,0.29-0.22h48.86c0.13,0,0.25,0.09,0.29,0.22
		c0.17,0.5,0.32,1.02,0.46,1.53c0.58,2.18,0.88,4.44,0.88,6.72c0,3.11-0.54,6.15-1.61,9.05C70.43,69.89,67.18,74.12,62.86,77.18z
		 M79.14,61.99c-1.29,1.36-3.06,2.16-4.89,2.21c0.81-2.68,1.21-5.47,1.21-8.3c0-1.91-0.19-3.81-0.56-5.68
		c3.33,0.4,5.97,3.14,6.16,6.56C81.17,58.72,80.49,60.57,79.14,61.99z"/>
</g>
<path class="st2" d="M36.88,65.48v2.87c0,0.91,0.74,1.66,1.65,1.66c0.91,0,1.66-0.74,1.66-1.66v-2.87c0-0.91-0.74-1.65-1.66-1.65
	C37.62,63.82,36.88,64.56,36.88,65.48"/>
<path class="st2" d="M55.67,65.48v2.87c0,0.91,0.74,1.66,1.65,1.66c0.91,0,1.66-0.74,1.66-1.66v-2.87c0-0.91-0.74-1.65-1.66-1.65
	C56.41,63.82,55.67,64.56,55.67,65.48"/>
<path class="st3" d="M47.93,69.68c-2.71,0-4.9,2.19-4.9,4.9c0,2.71,2.19,4.9,4.9,4.9c2.7,0,4.9-2.19,4.9-4.9
	C52.83,71.88,50.63,69.68,47.93,69.68 M47.93,78.05c-1.91,0-3.47-1.55-3.47-3.47c0-1.91,1.56-3.47,3.47-3.47
	c1.91,0,3.47,1.56,3.47,3.47C51.39,76.49,49.84,78.05,47.93,78.05"/>
<path class="st3" d="M47.93,72.32c-1.25,0-2.27,1.02-2.27,2.27c0,1.25,1.02,2.26,2.27,2.26c1.25,0,2.26-1.02,2.26-2.26
	C50.19,73.33,49.18,72.32,47.93,72.32"/>
<g class="st0">
	<path class="st1" d="M179.36,36.21l46.95,8.28c1.25,0.22,2.44-0.61,2.66-1.86l0.83-4.68c0.5-2.85-1.4-5.57-4.25-6.07l-14.59-2.57
		c-0.24-2.77-2.3-5.14-5.17-5.65c-2.86-0.51-5.62,1.02-6.79,3.54l-14.59-2.57c-2.85-0.5-5.57,1.4-6.07,4.25l-0.83,4.68
		C177.28,34.8,178.11,35.99,179.36,36.21z"/>
	<path class="st1" d="M238.82,56.71c-0.24-4.33-3.77-7.78-8.12-7.92c-0.14-0.53-0.3-1.06-0.47-1.58c-0.23-0.7-0.88-1.18-1.62-1.18
		h-48.86c-0.74,0-1.39,0.48-1.62,1.18c-0.17,0.52-0.33,1.05-0.48,1.59c-4.41,0.26-7.91,3.91-7.91,8.39c0,4.65,3.77,8.42,8.42,8.42
		c0.11,0,0.22-0.01,0.33-0.02c3.92,10.38,13.94,17.76,25.69,17.76c11.76,0,21.78-7.39,25.69-17.78c0.12,0.01,0.23,0.02,0.35,0.02
		c0.07,0,0.13,0,0.2,0C235.19,65.61,239.09,61.51,238.82,56.71z M171.13,57.19c0-3.5,2.58-6.42,5.95-6.93
		c-0.37,1.85-0.55,3.75-0.55,5.65c0,2.83,0.41,5.61,1.21,8.29C174.06,63.98,171.13,60.92,171.13,57.19z M219.21,77.18
		c-4.41,3.13-9.61,4.78-15.04,4.78c-5.42,0-10.62-1.65-15.03-4.77c-4.31-3.05-7.56-7.27-9.4-12.2c-1.08-2.91-1.63-5.96-1.63-9.08
		c0-2.28,0.3-4.55,0.88-6.74c0.14-0.51,0.29-1.02,0.45-1.51c0.04-0.13,0.16-0.22,0.29-0.22h48.86c0.13,0,0.25,0.09,0.29,0.22
		c0.17,0.5,0.32,1.02,0.46,1.53c0.58,2.18,0.88,4.44,0.88,6.72c0,3.11-0.54,6.15-1.61,9.05C226.78,69.89,223.53,74.12,219.21,77.18z
		 M235.5,61.99c-1.29,1.36-3.06,2.16-4.89,2.21c0.81-2.68,1.21-5.47,1.21-8.3c0-1.91-0.19-3.81-0.56-5.68
		c3.33,0.4,5.97,3.14,6.16,6.56C237.53,58.72,236.85,60.57,235.5,61.99z"/>
</g>
<path class="st2" d="M193.24,65.48v2.87c0,0.91,0.74,1.66,1.66,1.66c0.91,0,1.66-0.74,1.66-1.66v-2.87c0-0.91-0.74-1.65-1.66-1.65
	C193.98,63.82,193.24,64.56,193.24,65.48"/>
<path class="st2" d="M212.03,65.48v2.87c0,0.91,0.74,1.66,1.65,1.66c0.91,0,1.66-0.74,1.66-1.66v-2.87c0-0.91-0.74-1.65-1.66-1.65
	C212.77,63.82,212.03,64.56,212.03,65.48"/>
<path class="st3" d="M204.28,69.68c-2.71,0-4.9,2.19-4.9,4.9c0,2.71,2.19,4.9,4.9,4.9c2.71,0,4.9-2.19,4.9-4.9
	C209.18,71.88,206.99,69.68,204.28,69.68 M204.28,78.05c-1.91,0-3.47-1.55-3.47-3.47c0-1.91,1.55-3.47,3.47-3.47
	c1.91,0,3.47,1.56,3.47,3.47C207.75,76.49,206.2,78.05,204.28,78.05"/>
<path class="st3" d="M204.28,72.32c-1.25,0-2.27,1.02-2.27,2.27c0,1.25,1.02,2.26,2.27,2.26c1.25,0,2.26-1.02,2.26-2.26
	C206.55,73.33,205.53,72.32,204.28,72.32"/>
</svg>
