<?xml version="1.0" encoding="utf-8"?>
<!-- Generator: Adobe Illustrator 27.0.0, SVG Export Plug-In . SVG Version: 6.00 Build 0)  -->
<svg version="1.1" id="圖層_1" xmlns="http://www.w3.org/2000/svg" xmlns:xlink="http://www.w3.org/1999/xlink" x="0px" y="0px"
	 viewBox="0 0 50 50" style="enable-background:new 0 0 50 50;" xml:space="preserve">
<style type="text/css">
	.st0{fill:#D06745;}
</style>
<g>
	<path class="st0" d="M29.37,32.5c0-0.88-0.71-1.59-1.59-1.59c-0.88,0-1.59,0.71-1.59,1.59c0,0.88,0.71,1.59,1.59,1.59
		C28.65,34.09,29.37,33.38,29.37,32.5z"/>
	<path class="st0" d="M22.9,20.54c0.7,0,1.27-0.57,1.27-1.27c0-0.7-0.57-1.27-1.27-1.27c-5.36,0-9.72,4.36-9.72,9.72
		s4.36,9.72,9.72,9.72c0.7,0,1.27-0.57,1.27-1.27c0-0.7-0.57-1.27-1.27-1.27c-3.96,0-7.18-3.22-7.18-7.18S18.94,20.54,22.9,20.54z"
		/>
	<path class="st0" d="M33.28,45.15H30.7c-1.79,0-3.24-1.45-3.24-3.24c0-0.7-0.57-1.27-1.27-1.27s-1.27,0.57-1.27,1.27
		c0,3.19,2.59,5.78,5.78,5.78h2.59c0.7,0,1.27-0.57,1.27-1.27C34.56,45.72,33.99,45.15,33.28,45.15z"/>
	<path class="st0" d="M50,46.44c0.03-0.7-0.52-1.3-1.22-1.32c-0.02,0-0.04,0-0.06,0c-7.16-0.02-12.99-5.85-12.99-13.02v-6.92v-3.94
		v-1h-0.07c-0.43-3.59-3.13-6.49-6.62-7.21v-9.4c0-0.7-0.57-1.27-1.27-1.27h-4.85V2.35h-2.54v0.01h-3.71
		c-4.64,0-8.42,3.78-8.42,8.42v3.91C3.35,17.3,0,22.48,0,28.42v19.27h0.07v0h8.26v0c0.7,0,1.27-0.57,1.27-1.27
		c0-1.79,1.45-3.24,3.24-3.24s3.24,1.45,3.24,3.24c0,0,0,0,0,0c0,0,0,0,0,0c0,0.7,0.57,1.27,1.27,1.27h5.79
		c0.7,0,1.27-0.57,1.27-1.27c0-0.7-0.57-1.27-1.27-1.27h-4.66c-0.58-2.58-2.88-4.51-5.64-4.51s-5.06,1.93-5.64,4.51H2.54V28.42
		c0-7.18,5.84-13.02,13.02-13.02h11.79c3.22,0,5.84,2.62,5.84,5.84v3.94v6.92c0,8.55,6.93,15.51,15.47,15.56c0.01,0,0.01,0,0.02,0
		c0.01,0,0.02,0,0.03,0c0.02,0,0.03,0,0.05,0v0C49.42,47.65,49.97,47.12,50,46.44z M14.27,12.92c-1.2,0.1-2.36,0.33-3.47,0.69v-2.83
		c0-2.38,1.43-4.43,3.47-5.35V12.92z M20.39,12.86h-3.58V4.9h3.58V12.86z M26.5,12.86h-3.58V4.9h3.58V12.86z"/>
</g>
</svg>
