<?xml version="1.0" encoding="utf-8"?>
<!-- Generator: Adobe Illustrator 27.0.0, SVG Export Plug-In . SVG Version: 6.00 Build 0)  -->
<svg version="1.1" id="圖層_1" xmlns="http://www.w3.org/2000/svg" xmlns:xlink="http://www.w3.org/1999/xlink" x="0px" y="0px"
	 viewBox="0 0 50 50" style="enable-background:new 0 0 50 50;" xml:space="preserve">
<style type="text/css">
	.st0{fill:#D06745;}
</style>
<g>
	<path class="st0" d="M42.23,15.34c0-6.23-5.07-11.29-11.29-11.29h-1.21c-0.6-2.03-2.49-3.52-4.71-3.52S20.9,2.01,20.3,4.04h-1.21
		c-1.41,0-5,0.32-7.99,3.31c-2.99,2.99-3.31,6.58-3.31,7.99v1.39h34.44V15.34z M10.7,13.95c0.22-1.27,0.81-3.08,2.37-4.63
		c2.31-2.31,5.19-2.49,6.02-2.49h3.79V5.43c0-1.18,0.96-2.13,2.13-2.13c1.18,0,2.13,0.96,2.13,2.13v1.39h3.79
		c4.22,0,7.73,3.09,8.4,7.12H10.7z"/>
	<path class="st0" d="M50,27.33c0-4.29-3.49-7.78-7.78-7.78h-1.37c-0.77,0-1.39,0.62-1.39,1.39v15.78c0,4.62-5.47,9.98-12.53,9.98
		h-5.55c-5.94,0-10.78-4.48-10.78-9.99l0-1.5h9.54c0.77,0,1.39-0.62,1.39-1.39c0-0.77-0.62-1.39-1.39-1.39h-9.55l-0.01-3.63h9.56
		c0.77,0,1.39-0.62,1.39-1.39c0-0.77-0.62-1.39-1.39-1.39h-9.56l-0.01-3.63h9.57c0.77,0,1.39-0.62,1.39-1.39s-0.62-1.39-1.39-1.39
		H7.78C3.49,19.6,0,23.09,0,27.38s3.49,7.78,7.78,7.78v-2.78c-2.76,0-5-2.24-5-5s2.24-5,5-5h0.01l0.02,11.19
		c-0.01,0.08-0.02,0.16-0.02,0.25c0,0.09,0.01,0.17,0.03,0.26l0.01,2.64c0,7.04,6.08,12.76,13.56,12.76h5.55
		c3.61,0,7.38-1.32,10.33-3.63c3.21-2.5,4.97-5.75,4.97-9.14v-1.6C46.52,35.11,50,31.62,50,27.33z M42.23,32.34V22.33
		c2.75,0.01,4.99,2.25,4.99,5S44.98,32.33,42.23,32.34z"/>
</g>
</svg>
