<?xml version="1.0" encoding="utf-8"?>
<!-- Generator: Adobe Illustrator 27.0.0, SVG Export Plug-In . SVG Version: 6.00 Build 0)  -->
<svg version="1.1" id="圖層_1" xmlns="http://www.w3.org/2000/svg" xmlns:xlink="http://www.w3.org/1999/xlink" x="0px" y="0px"
	 viewBox="0 0 50 50" style="enable-background:new 0 0 50 50;" xml:space="preserve">
<style type="text/css">
	.st0{fill:#D06745;}
</style>
<g>
	<path class="st0" d="M19.21,4.48c-1.42,0-2.69,0.61-3.58,1.58c-0.89-0.97-2.16-1.58-3.58-1.58S9.36,5.09,8.47,6.06
		C7.58,5.09,6.3,4.48,4.89,4.48c-2.55,0-4.65,1.98-4.85,4.48C0.01,9.04,0,9.14,0,9.23v11.38c0,4.1,3.03,7.49,6.95,8.02v12.77
		c0,2.5,2.29,4.53,5.1,4.53c2.81,0,5.1-2.03,5.1-4.52c0,0,0,0,0,0V28.63c3.9-0.54,6.92-3.93,6.92-8.02V9.47
		c0-0.04,0.01-0.08,0.01-0.12C24.08,6.66,21.9,4.48,19.21,4.48z M12.05,43.35c-1.37,0-2.52-0.89-2.52-1.95V28.72h5.04v12.69
		c0,0,0,0,0,0C14.57,42.46,13.41,43.35,12.05,43.35z M21.49,20.61c0,3.04-2.44,5.52-5.43,5.52H8.01c-2.99,0-5.43-2.48-5.43-5.52
		V9.47c0-0.04,0.01-0.08,0.01-0.12c0-1.26,1.03-2.29,2.29-2.29c1.26,0,2.29,1.03,2.29,2.29v5.26c0,0.71,0.58,1.29,1.29,1.29
		s1.29-0.58,1.29-1.29V9.35c0-1.26,1.03-2.29,2.29-2.29c1.26,0,2.29,1.03,2.29,2.29v5.26c0,0.71,0.58,1.29,1.29,1.29
		s1.29-0.58,1.29-1.29V9.35c0-1.26,1.03-2.29,2.29-2.29c1.22,0,2.21,0.96,2.28,2.17c0,0,0,0,0,0.01V20.61z"/>
	<path class="st0" d="M50,16.29c0-6.74-5.49-12.23-12.23-12.23c-6.74,0-12.23,5.49-12.23,12.23c0,0.14,0.03,0.28,0.07,0.41
		c-0.04,0.13-0.07,0.27-0.07,0.41c0,4.88,2.88,9.1,7.02,11.06v13.23c0,2.5,2.29,4.53,5.1,4.53c2.81,0,5.1-2.03,5.1-4.53V28.28
		C47.02,26.36,50,22.08,50,17.12c0-0.14-0.03-0.28-0.07-0.41C49.97,16.58,50,16.44,50,16.29z M40.18,41.41
		c0,1.05-1.15,1.95-2.52,1.95c-1.37,0-2.52-0.89-2.52-1.95V29.06c0.85,0.19,1.73,0.29,2.63,0.29c0.82,0,1.63-0.08,2.41-0.24V41.41z
		 M37.77,26.76c-5.32,0-9.65-4.33-9.65-9.65c0-0.14-0.03-0.28-0.07-0.41c0.04-0.13,0.07-0.27,0.07-0.41c0-5.32,4.33-9.65,9.65-9.65
		c5.32,0,9.65,4.33,9.65,9.65c0,0.14,0.03,0.28,0.07,0.41c-0.04,0.13-0.07,0.27-0.07,0.41C47.42,22.44,43.09,26.76,37.77,26.76z"/>
</g>
</svg>
