<?xml version="1.0" encoding="utf-8"?>
<!-- Generator: Adobe Illustrator 27.0.0, SVG Export Plug-In . SVG Version: 6.00 Build 0)  -->
<svg version="1.1" id="圖層_1" xmlns="http://www.w3.org/2000/svg" xmlns:xlink="http://www.w3.org/1999/xlink" x="0px" y="0px"
	 viewBox="0 0 50 50" style="enable-background:new 0 0 50 50;" xml:space="preserve">
<style type="text/css">
	.st0{fill:#D06745;}
</style>
<g>
	<path class="st0" d="M26.97,13.94c3.84,0,6.97-3.13,6.97-6.97c0-3.84-3.13-6.97-6.97-6.97C23.13,0,20,3.13,20,6.97
		C20,10.81,23.13,13.94,26.97,13.94z M26.97,2.79c2.3,0,4.17,1.87,4.17,4.17s-1.87,4.17-4.17,4.17c-2.3,0-4.17-1.87-4.17-4.17
		S24.67,2.79,26.97,2.79z"/>
	<path class="st0" d="M37.9,31.91h-0.51l0.04-11.14c0-3.11-2.53-5.65-5.65-5.65v1.4l0-1.4l-9.32,0.03c-0.01,0-0.01,0-0.02,0
		c-0.02,0-0.03,0-0.05,0l-0.05,0v0c-3.07,0.05-5.55,2.56-5.55,5.64v1.9c-5.94,1.57-10.34,6.99-10.34,13.42
		C6.46,43.77,12.68,50,20.34,50c7.65,0,13.88-6.23,13.88-13.88s-6.23-13.88-13.88-13.88c-0.25,0-0.5,0.01-0.75,0.02v-1.46
		c0-1.56,1.25-2.82,2.8-2.85l9.4-0.03v0c1.57,0,2.85,1.28,2.85,2.85L34.59,33.2l0.01,0c0,0.03-0.01,0.07-0.01,0.1
		c0,0.77,0.63,1.4,1.4,1.4h1.91c1.57,0,2.85,1.28,2.85,2.85v6.4c0,0.77,0.63,1.4,1.4,1.4c0.77,0,1.4-0.63,1.4-1.4v-6.4
		C43.54,34.44,41.01,31.91,37.9,31.91z M20.34,25.03c6.11,0,11.09,4.97,11.09,11.09c0,6.11-4.97,11.09-11.09,11.09
		S9.25,42.23,9.25,36.12c0-4.87,3.16-9.02,7.54-10.5v0.91c0,3.11,2.53,5.65,5.65,5.65c0.77,0,1.4-0.63,1.4-1.4s-0.63-1.4-1.4-1.4
		c-1.57,0-2.85-1.28-2.85-2.85v-1.46C19.83,25.04,20.08,25.03,20.34,25.03z"/>
</g>
</svg>
