<?xml version="1.0" encoding="utf-8"?>
<!-- Generator: Adobe Illustrator 27.0.0, SVG Export Plug-In . SVG Version: 6.00 Build 0)  -->
<svg version="1.1" id="圖層_1" xmlns="http://www.w3.org/2000/svg" xmlns:xlink="http://www.w3.org/1999/xlink" x="0px" y="0px"
	 viewBox="0 0 76 38" style="enable-background:new 0 0 76 38;" xml:space="preserve">
<style type="text/css">
	.st0{clip-path:url(#SVGID_00000065039645178838927840000000664011961273346985_);fill:#D06745;}
	.st1{clip-path:url(#SVGID_00000065039645178838927840000000664011961273346985_);fill:#CB8780;}
	.st2{clip-path:url(#SVGID_00000065039645178838927840000000664011961273346985_);fill:#EACF8A;}
	.st3{clip-path:url(#SVGID_00000065039645178838927840000000664011961273346985_);fill:#CC6849;}
</style>
<g>
	<defs>
		<rect id="SVGID_1_" x="-4.61" width="85.22" height="38"/>
	</defs>
	<clipPath id="SVGID_00000026124962504459708420000001000272431775050376_">
		<use xlink:href="#SVGID_1_"  style="overflow:visible;"/>
	</clipPath>
	<path style="clip-path:url(#SVGID_00000026124962504459708420000001000272431775050376_);fill:#D06745;" d="M28.62,6.74H21
		c-0.37-1.38-1.63-2.4-3.12-2.4c-1.5,0-2.76,1.02-3.12,2.4H7.12c-1.49,0-2.7,1.21-2.7,2.7v2.45c0,0.65,0.53,1.18,1.18,1.18h24.54
		c0.65,0,1.18-0.53,1.18-1.18V9.44C31.32,7.95,30.11,6.74,28.62,6.74"/>
	<path style="clip-path:url(#SVGID_00000026124962504459708420000001000272431775050376_);fill:#D06745;" d="M3.86,16.02
		c-0.19,0.95-0.29,1.93-0.29,2.91c0,1.46,0.21,2.89,0.62,4.27c-1.89-0.11-3.4-1.69-3.4-3.61C0.8,17.79,2.13,16.29,3.86,16.02
		 M4.41,15.26c-2.39,0-4.33,1.94-4.33,4.33c0,2.39,1.94,4.33,4.33,4.33c0.26,0,0.51-0.02,0.76-0.07c0,0,0.01-0.01,0.01-0.01
		c-0.57-1.53-0.88-3.19-0.88-4.92c0-1.26,0.17-2.48,0.48-3.64c0,0,0-0.01-0.01-0.01C4.65,15.26,4.53,15.26,4.41,15.26"/>
	<path style="clip-path:url(#SVGID_00000026124962504459708420000001000272431775050376_);fill:#D06745;" d="M31.74,16
		c1.71,0.21,3.07,1.62,3.17,3.38c0.06,0.99-0.3,1.94-0.99,2.68c-0.66,0.7-1.57,1.11-2.52,1.14c0.41-1.38,0.62-2.81,0.62-4.27
		C32.03,17.94,31.94,16.96,31.74,16 M31.31,15.26c-0.16,0-0.31,0.01-0.47,0.03c0,0-0.01,0-0.01,0.01c0.31,1.16,0.47,2.38,0.47,3.63
		c0,1.72-0.31,3.37-0.87,4.9c0,0,0,0.01,0.01,0.01c0.25,0.05,0.5,0.08,0.76,0.09c0.03,0,0.07,0,0.1,0c2.46,0,4.47-2.11,4.33-4.58
		C35.51,17.06,33.62,15.26,31.31,15.26"/>
	<path style="clip-path:url(#SVGID_00000026124962504459708420000001000272431775050376_);fill:#D06745;" d="M30.38,14.57
		c0.07,0,0.13,0.05,0.15,0.11c0.09,0.26,0.17,0.52,0.24,0.79c0.3,1.12,0.45,2.29,0.45,3.46c0,1.6-0.28,3.17-0.83,4.66
		c-0.94,2.54-2.61,4.72-4.84,6.29c-2.27,1.61-4.95,2.46-7.74,2.46c-2.79,0-5.47-0.85-7.74-2.45c-2.22-1.57-3.89-3.74-4.84-6.28
		c-0.56-1.49-0.84-3.07-0.84-4.68c0-1.17,0.15-2.34,0.45-3.47C4.92,15.2,5,14.93,5.08,14.68c0.02-0.07,0.08-0.11,0.15-0.11H30.38
		 M30.38,13.85H5.23c-0.38,0-0.71,0.25-0.83,0.61C4.31,14.72,4.22,15,4.15,15.27c-0.31,1.17-0.48,2.39-0.48,3.65
		c0,1.73,0.31,3.39,0.88,4.93c2,5.38,7.18,9.21,13.25,9.21c6.08,0,11.26-3.84,13.26-9.22c0.57-1.53,0.88-3.18,0.88-4.91
		c0-1.26-0.17-2.48-0.48-3.64c-0.07-0.28-0.16-0.56-0.25-0.83C31.09,14.09,30.76,13.85,30.38,13.85"/>
	<path style="clip-path:url(#SVGID_00000026124962504459708420000001000272431775050376_);fill:#CB8780;" d="M12.18,23.85v1.47
		c0,0.47,0.38,0.85,0.85,0.85c0.47,0,0.85-0.38,0.85-0.85v-1.47c0-0.47-0.38-0.85-0.85-0.85C12.56,23,12.18,23.38,12.18,23.85"/>
	<path style="clip-path:url(#SVGID_00000026124962504459708420000001000272431775050376_);fill:#CB8780;" d="M21.85,23.85v1.47
		c0,0.47,0.38,0.85,0.85,0.85c0.47,0,0.85-0.38,0.85-0.85v-1.47c0-0.47-0.38-0.85-0.85-0.85C22.23,23,21.85,23.38,21.85,23.85"/>
	<path style="clip-path:url(#SVGID_00000026124962504459708420000001000272431775050376_);fill:#EACF8A;" d="M17.86,26.02
		c-1.39,0-2.52,1.13-2.52,2.52c0,1.39,1.13,2.52,2.52,2.52c1.39,0,2.52-1.13,2.52-2.52C20.38,27.15,19.25,26.02,17.86,26.02
		 M17.86,30.32c-0.98,0-1.78-0.8-1.78-1.78c0-0.98,0.8-1.78,1.78-1.78c0.98,0,1.78,0.8,1.78,1.78
		C19.65,29.52,18.85,30.32,17.86,30.32"/>
	<path style="clip-path:url(#SVGID_00000026124962504459708420000001000272431775050376_);fill:#EACF8A;" d="M17.86,27.37
		c-0.64,0-1.17,0.52-1.17,1.17c0,0.64,0.52,1.17,1.17,1.17c0.64,0,1.17-0.52,1.17-1.17C19.03,27.9,18.5,27.37,17.86,27.37"/>
	<path style="clip-path:url(#SVGID_00000026124962504459708420000001000272431775050376_);fill:#CC6849;" d="M38.77,30.85
		c-0.12,0-0.22-0.1-0.22-0.22v-1.59c0-0.15,0.13-0.28,0.28-0.28h2.28c0.12,0,0.22,0.1,0.22,0.22c0,0.12-0.1,0.22-0.22,0.22h-2.12
		v1.43C38.99,30.76,38.89,30.85,38.77,30.85"/>
	<path style="clip-path:url(#SVGID_00000026124962504459708420000001000272431775050376_);fill:#CC6849;" d="M38.77,32.93
		c-0.12,0-0.22-0.1-0.22-0.22v-0.93c0-0.15,0.04-0.52,0.35-0.82c0.31-0.3,0.68-0.33,0.82-0.33h1.39c0.12,0,0.22,0.1,0.22,0.22
		c0,0.12-0.1,0.22-0.22,0.22h-1.39c-0.07,0-0.31,0.02-0.51,0.21c-0.2,0.19-0.22,0.44-0.22,0.51v0.93
		C38.99,32.83,38.89,32.93,38.77,32.93"/>
	<path style="clip-path:url(#SVGID_00000026124962504459708420000001000272431775050376_);fill:#CC6849;" d="M44.28,32.93
		c-0.12,0-0.22-0.1-0.22-0.22V31.1H42.9c-0.08,0-0.34,0.02-0.54,0.24c-0.16,0.17-0.19,0.38-0.19,0.46l0,0.91
		c0,0.12-0.1,0.22-0.22,0.22c-0.12,0-0.22-0.1-0.22-0.22l0-0.92c0.01-0.16,0.05-0.47,0.31-0.75c0.32-0.35,0.75-0.38,0.87-0.38h1.16
		v-0.53c0-0.08-0.04-0.5-0.39-0.76c-0.21-0.15-0.44-0.17-0.55-0.17c-0.12,0-0.34,0.03-0.55,0.18c-0.35,0.26-0.39,0.67-0.39,0.76
		v0.51c0,0.12-0.1,0.22-0.22,0.22c-0.12,0-0.22-0.1-0.22-0.22v-0.52c0-0.12,0.05-0.72,0.57-1.1c0.31-0.23,0.65-0.26,0.82-0.26
		c0.21,0,0.52,0.05,0.81,0.26c0.53,0.38,0.57,0.98,0.58,1.1l0,2.59C44.51,32.83,44.41,32.93,44.28,32.93"/>
	<path style="clip-path:url(#SVGID_00000026124962504459708420000001000272431775050376_);fill:#CC6849;" d="M48.01,32.93
		c-0.12,0-0.22-0.1-0.22-0.22v-3.02c0-0.27-0.22-0.49-0.5-0.49c-0.27,0-0.5,0.22-0.5,0.49v3.02c0,0.12-0.1,0.22-0.22,0.22
		c-0.12,0-0.22-0.1-0.22-0.22v-3.01c-0.01-0.15-0.08-0.28-0.2-0.38c-0.09-0.07-0.2-0.12-0.31-0.12c-0.02,0-0.03,0-0.05,0
		c-0.23,0.03-0.42,0.24-0.43,0.49l0,3.02c0,0.12-0.1,0.22-0.22,0.22c-0.12,0-0.22-0.1-0.22-0.22l0-3.03
		c0.02-0.47,0.38-0.86,0.83-0.91c0.03,0,0.07-0.01,0.1-0.01c0.21,0,0.43,0.08,0.6,0.22c0.05,0.04,0.09,0.08,0.13,0.13
		c0.18-0.22,0.44-0.34,0.73-0.34c0.52,0,0.94,0.42,0.94,0.93v3.02C48.23,32.83,48.13,32.93,48.01,32.93"/>
	<path style="clip-path:url(#SVGID_00000026124962504459708420000001000272431775050376_);fill:#CC6849;" d="M52.98,32.93
		c-0.13,0-0.58-0.04-0.9-0.41c-0.24-0.28-0.28-0.59-0.28-0.75v-2.79c0-0.12,0.1-0.22,0.22-0.22c0.12,0,0.22,0.1,0.22,0.22v2.79
		c0,0.1,0.02,0.29,0.17,0.46c0.21,0.24,0.5,0.26,0.56,0.26l1.39,0c0.12,0,0.22,0.1,0.22,0.22c0,0.12-0.1,0.22-0.22,0.22H52.98z"/>
	<path style="clip-path:url(#SVGID_00000026124962504459708420000001000272431775050376_);fill:#CC6849;" d="M48.85,29.2
		c-0.12,0-0.22-0.1-0.22-0.22c0-0.12,0.1-0.22,0.22-0.22h0.87c0.12,0,0.22,0.1,0.22,0.22c0,0.12-0.1,0.22-0.22,0.22H48.85z"/>
	<path style="clip-path:url(#SVGID_00000026124962504459708420000001000272431775050376_);fill:#CC6849;" d="M48.84,32.93
		c-0.12,0-0.22-0.1-0.22-0.22c0-0.12,0.1-0.22,0.22-0.22h0.95l0-2.58c0-0.14,0.05-0.6,0.46-0.91c0.27-0.21,0.56-0.24,0.72-0.24h0.22
		c0.12,0,0.22,0.1,0.22,0.22c0,0.12-0.1,0.22-0.22,0.22h-0.22c-0.09,0-0.28,0.02-0.44,0.15c-0.26,0.2-0.28,0.51-0.29,0.57l0,2.57
		h0.95c0.12,0,0.22,0.1,0.22,0.22c0,0.12-0.1,0.22-0.22,0.22H48.84z"/>
	<path style="clip-path:url(#SVGID_00000026124962504459708420000001000272431775050376_);fill:#CC6849;" d="M56.03,32.93
		c-0.01,0-0.02,0-0.04,0c-0.11-0.02-0.19-0.11-0.19-0.22v-1.59c-0.13-0.02-0.3-0.07-0.49-0.17c-0.67-0.36-0.68-1.14-0.68-1.18
		l0-0.79c0-0.12,0.1-0.22,0.22-0.22c0.02,0,0.05,0,0.07,0.01c0.09,0.03,0.15,0.12,0.15,0.21l0,0.78c0,0.02,0.01,0.55,0.45,0.79
		c0.24,0.13,0.44,0.14,0.5,0.14c0.09,0,0.42-0.02,0.67-0.28c0.25-0.25,0.27-0.56,0.27-0.65c0-0.19,0-0.47,0-0.55l0-0.15l0-0.09
		c0-0.06,0.02-0.11,0.06-0.16c0.04-0.04,0.1-0.06,0.16-0.06c0.12,0,0.22,0.1,0.22,0.22l0,0.24c0,0.08,0,0.36,0,0.55
		c0,0.17-0.04,0.6-0.4,0.96c-0.25,0.25-0.55,0.35-0.77,0.39v1.59c0,0.06-0.02,0.11-0.07,0.16C56.15,32.91,56.09,32.93,56.03,32.93"
		/>
	<path style="clip-path:url(#SVGID_00000026124962504459708420000001000272431775050376_);fill:#CC6849;" d="M60.09,32.93
		c-0.16,0-0.28-0.12-0.28-0.28v-0.94c0-0.12,0.03-0.54,0.38-0.85c0.3-0.27,0.66-0.3,0.79-0.3h0.44c0.2-0.01,0.38-0.1,0.52-0.25
		c0.12-0.14,0.19-0.32,0.17-0.49c-0.03-0.33-0.33-0.6-0.69-0.62l-1.17,0v1.27c0,0.12-0.1,0.22-0.22,0.22c-0.12,0-0.22-0.1-0.22-0.22
		v-1.43c0-0.15,0.13-0.28,0.28-0.28l1.35,0c0.59,0.03,1.07,0.46,1.12,1.02c0.03,0.29-0.08,0.59-0.28,0.82
		c-0.06,0.07-0.12,0.12-0.19,0.17c0.06,0.04,0.11,0.08,0.16,0.13c0.31,0.3,0.36,0.69,0.36,0.84c0,0.14-0.03,0.49-0.3,0.79
		c-0.32,0.35-0.74,0.4-0.86,0.4l-0.01,0H60.09z M61.44,32.49c0.07,0,0.34-0.03,0.54-0.26c0.17-0.19,0.19-0.41,0.19-0.49
		c0-0.1-0.03-0.35-0.23-0.53c-0.12-0.12-0.26-0.17-0.31-0.18c-0.06-0.02-0.13-0.03-0.2-0.03l-0.44,0c-0.09,0-0.31,0.02-0.49,0.19
		c-0.22,0.2-0.24,0.46-0.24,0.53v0.77H61.44z"/>
	<path style="clip-path:url(#SVGID_00000026124962504459708420000001000272431775050376_);fill:#CC6849;" d="M63.21,29.2
		c-0.12,0-0.22-0.1-0.22-0.22c0-0.12,0.1-0.22,0.22-0.22h0.87c0.12,0,0.22,0.1,0.22,0.22c0,0.12-0.1,0.22-0.22,0.22H63.21z"/>
	<path style="clip-path:url(#SVGID_00000026124962504459708420000001000272431775050376_);fill:#CC6849;" d="M63.21,32.93
		c-0.12,0-0.22-0.1-0.22-0.22c0-0.12,0.1-0.22,0.22-0.22h0.95v-2.58c0-0.14,0.05-0.6,0.46-0.91c0.27-0.21,0.56-0.24,0.72-0.24h0.22
		c0.12,0,0.22,0.1,0.22,0.22c0,0.12-0.1,0.22-0.22,0.22h-0.22c-0.09,0-0.28,0.02-0.45,0.15c-0.26,0.2-0.28,0.51-0.29,0.57l0,2.57
		h0.95c0.12,0,0.22,0.1,0.22,0.22c0,0.12-0.1,0.22-0.22,0.22H63.21z"/>
	<path style="clip-path:url(#SVGID_00000026124962504459708420000001000272431775050376_);fill:#CC6849;" d="M66.42,29.2
		c-0.12,0-0.22-0.1-0.22-0.22c0-0.12,0.1-0.22,0.22-0.22l1.06,0c0.12,0,0.22,0.1,0.22,0.22c0,0.12-0.1,0.22-0.22,0.22H66.42z"/>
	<path style="clip-path:url(#SVGID_00000026124962504459708420000001000272431775050376_);fill:#CC6849;" d="M67.79,32.93
		c-0.12,0-0.22-0.1-0.22-0.22v-2.8c0-0.14,0.05-0.6,0.46-0.91c0.27-0.21,0.56-0.24,0.72-0.24h0.61c0.12,0,0.22,0.1,0.22,0.22
		c0,0.12-0.1,0.22-0.22,0.22h-0.61c-0.09,0-0.28,0.02-0.44,0.15c-0.26,0.2-0.28,0.51-0.29,0.57v2.79
		C68.01,32.83,67.91,32.93,67.79,32.93"/>
	<path style="clip-path:url(#SVGID_00000026124962504459708420000001000272431775050376_);fill:#CC6849;" d="M70.22,30.85
		c-0.12,0-0.22-0.1-0.22-0.22v-1.59c0-0.15,0.13-0.28,0.28-0.28h2.28c0.12,0,0.22,0.1,0.22,0.22c0,0.12-0.1,0.22-0.22,0.22h-2.12
		v1.43C70.44,30.75,70.34,30.85,70.22,30.85"/>
	<path style="clip-path:url(#SVGID_00000026124962504459708420000001000272431775050376_);fill:#CC6849;" d="M70.28,32.93
		c-0.16,0-0.28-0.12-0.28-0.28v-0.88c0-0.15,0.04-0.52,0.35-0.82c0.31-0.3,0.68-0.33,0.82-0.33h1.39c0.12,0,0.22,0.1,0.22,0.22
		c0,0.12-0.1,0.22-0.22,0.22h-1.39c-0.07,0-0.31,0.02-0.51,0.21c-0.2,0.19-0.22,0.44-0.22,0.51v0.71h2.12c0.12,0,0.22,0.1,0.22,0.22
		v0.22H70.28z"/>
	<path style="clip-path:url(#SVGID_00000026124962504459708420000001000272431775050376_);fill:#CC6849;" d="M74.76,30.66h-0.42
		c-0.21,0-0.4-0.08-0.54-0.23c-0.14-0.15-0.22-0.34-0.21-0.55c0.01-0.4,0.36-0.73,0.77-0.73h1.37c0.11,0,0.19-0.09,0.19-0.19
		c0-0.11-0.09-0.19-0.19-0.19h-1.39c-0.31,0-0.6,0.12-0.82,0.35c-0.22,0.22-0.33,0.52-0.32,0.83c0.02,0.61,0.54,1.1,1.16,1.1h0.4
		c0.41,0,0.75,0.31,0.77,0.71c0.01,0.22-0.06,0.42-0.22,0.58c-0.14,0.14-0.33,0.22-0.53,0.22H73.4c-0.11,0-0.19,0.09-0.19,0.19
		s0.09,0.19,0.19,0.19h1.38c0.3,0,0.59-0.12,0.8-0.33c0.22-0.22,0.34-0.52,0.33-0.83C75.91,31.16,75.39,30.66,74.76,30.66"/>
	<path style="clip-path:url(#SVGID_00000026124962504459708420000001000272431775050376_);fill:#CC6849;" d="M43.45,8.57
		c-0.79-0.62-1.66-0.67-1.9-0.68h0c-0.2,0-1.25,0.03-2.06,0.82c-0.59,0.57-0.94,1.37-0.94,2.18l-0.02,7.21l0,0.03
		c0.01,0.2,0.13,1.25,1.04,2.05c0.77,0.67,1.62,0.75,1.95,0.75c0.29,0,1.28-0.06,2.09-0.83c0.86-0.82,0.93-1.87,0.94-2.18v-7.04
		l0-0.02C44.53,9.93,44.14,9.12,43.45,8.57 M43.64,17.93c0,0.21-0.05,0.95-0.65,1.52c-0.56,0.53-1.26,0.58-1.46,0.58
		c-0.23,0-0.82-0.05-1.36-0.52c-0.63-0.55-0.72-1.28-0.73-1.42l0.02-7.19c0-0.27,0.07-0.95,0.66-1.53c0.57-0.55,1.34-0.57,1.43-0.57
		c0.12,0,0.77,0.03,1.34,0.48c0.64,0.5,0.75,1.22,0.75,1.61V17.93z"/>
	<path style="clip-path:url(#SVGID_00000026124962504459708420000001000272431775050376_);fill:#CC6849;" d="M56.51,14.21
		c0-1.17-0.01-2.34-0.01-3.59c0-0.37-0.09-1.32-0.83-2.13c-0.86-0.94-1.99-1.02-2.32-1.02c-0.9,0-1.73,0-2.56,0
		c-0.83,0-1.65,0-2.56,0h0c-0.11,0-1.11,0.03-1.98,0.7c-0.73,0.57-1.15,1.43-1.17,2.43l0,0.03c0,1.25,0,2.42,0,3.59
		c0,1.17,0,2.34,0,3.59c0,0.44,0.11,1.28,0.75,2.04c0.86,1.02,2.05,1.11,2.4,1.12c0.77,0.01,1.46,0.01,2.11,0.01l0,3.16
		c0,0.25,0.2,0.45,0.45,0.45c0.25,0,0.45-0.2,0.45-0.45l0-3.16c0.69,0,1.37-0.01,2.11-0.02c0.2,0,1.25-0.05,2.18-0.88
		c0.63-0.57,0.98-1.37,0.99-2.27C56.52,16.56,56.51,15.39,56.51,14.21 M55,9.11c0.53,0.58,0.59,1.26,0.59,1.52
		c0,1.09,0,2.12,0.01,3.14l-4.35,0l0-5.39c0.68,0,1.36,0,2.1,0C53.58,8.38,54.39,8.44,55,9.11 M45.99,10.62
		c0.02-0.72,0.31-1.33,0.82-1.73c0.63-0.49,1.38-0.51,1.43-0.51c0.74,0,1.42,0,2.1,0l0,5.39l-4.35,0c0-1.02,0-2.05,0-3.13
		L45.99,10.62z M48.24,20.05c-0.18,0-1.09-0.05-1.72-0.8c-0.47-0.56-0.53-1.2-0.53-1.45c0-1.08,0-2.11,0-3.12l4.35,0l0,5.39
		C49.69,20.06,49.01,20.06,48.24,20.05 M54.93,19.4c-0.7,0.63-1.49,0.65-1.58,0.65c-0.74,0.01-1.42,0.02-2.1,0.02l0-5.39l4.36,0
		c0,1.02,0.01,2.05,0.01,3.14C55.61,18.44,55.37,19.01,54.93,19.4"/>
	<path style="clip-path:url(#SVGID_00000026124962504459708420000001000272431775050376_);fill:#CC6849;" d="M75.92,11.49
		c-0.01-0.34-0.11-1.5-1.12-2.32c-0.7-0.58-1.49-0.69-1.89-0.71l-5.57,0V7.08c0-0.25-0.2-0.45-0.44-0.45c-0.24,0-0.44,0.2-0.44,0.45
		v1.38l-5.23,0c-0.33,0-1.49,0.09-2.35,1.04c-0.69,0.77-0.78,1.65-0.78,1.98c0,0.11,0,0.12,0,0.09c0,0.01,0,0.02,0,0.03
		c0,0.23,0.2,0.42,0.44,0.42h0.01c0.25,0,0.45-0.2,0.45-0.44v-0.02c0,0.03,0,0.03,0-0.08c0-0.24,0.06-0.86,0.56-1.42
		c0.61-0.68,1.44-0.74,1.67-0.74l11.64,0c0.29,0.01,0.85,0.1,1.34,0.5c0.72,0.59,0.79,1.43,0.8,1.66l0.01,0.08
		c0,0.24,0.19,0.43,0.44,0.43c0.25,0,0.45-0.2,0.45-0.44L75.92,11.49z"/>
	<path style="clip-path:url(#SVGID_00000026124962504459708420000001000272431775050376_);fill:#CC6849;" d="M60.53,19.74l6.23-2.9
		c0.22-0.1,0.32-0.36,0.22-0.58c-0.1-0.22-0.37-0.31-0.6-0.21l-6.23,2.9c-0.22,0.1-0.32,0.36-0.22,0.58
		C60.09,19.81,60.33,19.86,60.53,19.74"/>
	<path style="clip-path:url(#SVGID_00000026124962504459708420000001000272431775050376_);fill:#CC6849;" d="M68.12,18.63
		c-0.1-0.22-0.37-0.31-0.6-0.21l-7.38,3.44c-0.22,0.1-0.32,0.36-0.22,0.58c0.1,0.22,0.37,0.31,0.6,0.21l7.38-3.44
		C68.13,19.11,68.23,18.85,68.12,18.63"/>
	<path style="clip-path:url(#SVGID_00000026124962504459708420000001000272431775050376_);fill:#CC6849;" d="M71.22,18.98
		c0-0.01,0-0.02,0-0.03c0.24-1.63,1.55-2.9,3.2-3.08c0.22-0.02,0.39-0.21,0.39-0.44c0-0.26-0.23-0.47-0.48-0.44
		c-1.43,0.15-2.66,0.98-3.37,2.15c-0.58-1.8-2.07-3.22-3.95-3.74c1.36-0.62,2.69-1.26,3.87-1.79c0.22-0.1,0.36-0.32,0.34-0.55
		c-0.03-0.28-0.27-0.49-0.55-0.49l-8.13,0.03c-0.25,0-0.45,0.2-0.45,0.44c0,0.24,0.2,0.44,0.45,0.44h6.52
		c-1.12,0.52-2.28,1.07-3.48,1.63c-1.56,0.73-4.05,1.89-5.44,2.52c-0.22,0.1-0.32,0.36-0.22,0.58l0,0c0.1,0.22,0.37,0.31,0.6,0.21
		c1.26-0.57,3.75-1.74,5.16-2.42c2.71,0.06,4.74,2.35,4.64,5.03c-0.1,2.58-2.35,4.59-4.99,4.59H63.9c-0.25,0-0.45,0.2-0.45,0.44
		c0,0.24,0.2,0.44,0.45,0.44h1.54c2.31,0,4.31-1.33,5.24-3.24c0.63,1.46,2.01,2.53,3.65,2.7c0.26,0.03,0.48-0.18,0.48-0.44
		c0-0.22-0.17-0.41-0.39-0.44c-1.82-0.2-3.23-1.74-3.23-3.6c0-0.16,0.01-0.31,0.03-0.46L71.22,18.98z"/>
</g>
</svg>
