<?xml version="1.0" encoding="utf-8"?>
<!-- Generator: Adobe Illustrator 27.0.0, SVG Export Plug-In . SVG Version: 6.00 Build 0)  -->
<svg version="1.1" id="圖層_1" xmlns="http://www.w3.org/2000/svg" xmlns:xlink="http://www.w3.org/1999/xlink" x="0px" y="0px"
	 viewBox="0 0 15 15" style="enable-background:new 0 0 15 15;" xml:space="preserve">
<style type="text/css">
	.st0{fill:#D06745;}
	.st1{fill:#CB8780;}
	.st2{fill:#EACF8A;}
	.st3{fill:#CC6849;}
	.st4{fill:none;}
</style>
<path class="st0" d="M11.96,2.31H8.8C8.65,1.74,8.12,1.31,7.5,1.31c-0.62,0-1.14,0.42-1.29,0.99H3.05c-0.62,0-1.12,0.5-1.12,1.12
	v1.01c0,0.27,0.22,0.49,0.49,0.49h10.16c0.27,0,0.49-0.22,0.49-0.49V3.43C13.07,2.81,12.57,2.31,11.96,2.31"/>
<path class="st0" d="M1.7,6.15c-0.08,0.4-0.12,0.8-0.12,1.2c0,0.6,0.09,1.2,0.26,1.77c-0.78-0.05-1.41-0.7-1.41-1.49
	C0.44,6.88,0.99,6.26,1.7,6.15 M1.93,5.83c-0.99,0-1.79,0.8-1.79,1.79c0,0.99,0.8,1.79,1.79,1.79c0.11,0,0.21-0.01,0.31-0.03
	c0,0,0,0,0,0C2.01,8.76,1.88,8.07,1.88,7.35c0-0.52,0.07-1.03,0.2-1.51c0,0,0,0,0,0C2.03,5.84,1.98,5.83,1.93,5.83"/>
<path class="st0" d="M13.25,6.14c0.71,0.09,1.27,0.67,1.31,1.4c0.02,0.41-0.12,0.8-0.41,1.11c-0.27,0.29-0.65,0.46-1.04,0.47
	c0.17-0.57,0.26-1.17,0.26-1.77C13.37,6.95,13.33,6.54,13.25,6.14 M13.07,5.83c-0.07,0-0.13,0-0.19,0.01c0,0,0,0,0,0
	c0.13,0.48,0.2,0.98,0.2,1.5c0,0.71-0.13,1.4-0.36,2.03c0,0,0,0,0,0c0.1,0.02,0.21,0.03,0.32,0.04c0.01,0,0.03,0,0.04,0
	c1.02,0,1.85-0.87,1.79-1.9C14.81,6.58,14.03,5.83,13.07,5.83"/>
<path class="st0" d="M12.68,5.55c0.03,0,0.05,0.02,0.06,0.05c0.04,0.11,0.07,0.22,0.1,0.33c0.12,0.47,0.19,0.95,0.19,1.43
	c0,0.66-0.12,1.31-0.34,1.93c-0.39,1.05-1.08,1.95-2,2.61c-0.94,0.67-2.05,1.02-3.21,1.02c-1.16,0-2.26-0.35-3.2-1.02
	c-0.92-0.65-1.61-1.55-2-2.6C2.04,8.67,1.92,8.02,1.92,7.35c0-0.49,0.06-0.97,0.19-1.44c0.03-0.11,0.06-0.22,0.1-0.32
	c0.01-0.03,0.03-0.05,0.06-0.05H12.68 M12.68,5.25H2.27c-0.16,0-0.3,0.1-0.35,0.25c-0.04,0.11-0.07,0.23-0.1,0.34
	c-0.13,0.48-0.2,0.99-0.2,1.51c0,0.72,0.13,1.4,0.37,2.04c0.83,2.23,2.97,3.81,5.49,3.81c2.52,0,4.66-1.59,5.49-3.82
	c0.23-0.63,0.36-1.32,0.36-2.03c0-0.52-0.07-1.03-0.2-1.51c-0.03-0.12-0.07-0.23-0.1-0.34C12.98,5.35,12.84,5.25,12.68,5.25"/>
<path class="st1" d="M5.15,9.39V10c0,0.19,0.16,0.35,0.35,0.35c0.19,0,0.35-0.16,0.35-0.35V9.39c0-0.19-0.16-0.35-0.35-0.35
	C5.3,9.04,5.15,9.2,5.15,9.39"/>
<path class="st1" d="M9.15,9.39V10c0,0.19,0.16,0.35,0.35,0.35c0.19,0,0.35-0.16,0.35-0.35V9.39c0-0.19-0.16-0.35-0.35-0.35
	C9.31,9.04,9.15,9.2,9.15,9.39"/>
<path class="st2" d="M7.5,10.29c-0.58,0-1.04,0.47-1.04,1.04c0,0.58,0.47,1.04,1.04,1.04c0.58,0,1.04-0.47,1.04-1.04
	C8.54,10.76,8.08,10.29,7.5,10.29 M7.5,12.07c-0.41,0-0.74-0.33-0.74-0.74c0-0.41,0.33-0.74,0.74-0.74c0.41,0,0.74,0.33,0.74,0.74
	C8.24,11.74,7.91,12.07,7.5,12.07"/>
<path class="st2" d="M7.5,10.85c-0.27,0-0.48,0.22-0.48,0.48c0,0.27,0.22,0.48,0.48,0.48c0.27,0,0.48-0.22,0.48-0.48
	C7.98,11.07,7.77,10.85,7.5,10.85"/>
</svg>
